<svg width="1920" height="1036" viewBox="0 0 1920 1036" fill="none" xmlns="http://www.w3.org/2000/svg">
<path d="M1919 0C1919.55 0 1920 0.447715 1920 1V758C1920 780.091 1902.09 798 1880 798H1239C1230.16 798 1223 805.163 1223 814V860C1223 882.091 1205.09 900 1183 900H1136C1113.91 900 1096.59 918.293 1090.19 939.438C1073.29 995.317 1021.4 1036 960 1036C898.604 1036 846.71 995.317 829.806 939.438C823.41 918.293 806.091 900 784 900H737C714.909 900 697 882.091 697 860V814C697 805.163 689.837 798 681 798H40C17.9086 798 0 780.091 0 758V1C0 0.447715 0.447715 2.8185e-08 1 0H1919Z" fill="black" fill-opacity="0.4"/>
</svg>
